<?xml version="1.0" encoding="UTF-8" standalone="no"?>
<!-- Created with Inkscape (http://www.inkscape.org/) -->

<svg
   xmlns:dc="http://purl.org/dc/elements/1.1/"
   xmlns:cc="http://creativecommons.org/ns#"
   xmlns:rdf="http://www.w3.org/1999/02/22-rdf-syntax-ns#"
   xmlns:svg="http://www.w3.org/2000/svg"
   xmlns="http://www.w3.org/2000/svg"
   xmlns:sodipodi="http://sodipodi.sourceforge.net/DTD/sodipodi-0.dtd"
   xmlns:inkscape="http://www.inkscape.org/namespaces/inkscape"
   width="80.912262mm"
   height="30.886555mm"
   viewBox="0 0 80.912262 30.886555"
   version="1.1"
   id="svg8"
   inkscape:version="0.92.2 (5c3e80d, 2017-08-06)"
   sodipodi:docname="touche7.svg">
  <defs
     id="defs2" />
  <sodipodi:namedview
     id="base"
     pagecolor="#ffffff"
     bordercolor="#666666"
     borderopacity="1.0"
     inkscape:pageopacity="0"
     inkscape:pageshadow="2"
     inkscape:zoom="2.1568741"
     inkscape:cx="134.88093"
     inkscape:cy="31.225397"
     inkscape:document-units="mm"
     inkscape:current-layer="layer1"
     showgrid="false"
     inkscape:window-width="1920"
     inkscape:window-height="1053"
     inkscape:window-x="0"
     inkscape:window-y="27"
     inkscape:window-maximized="1" />
  <metadata
     id="metadata5">
    <rdf:RDF>
      <cc:Work
         rdf:about="">
        <dc:format>image/svg+xml</dc:format>
        <dc:type
           rdf:resource="http://purl.org/dc/dcmitype/StillImage" />
        <dc:title />
      </cc:Work>
    </rdf:RDF>
  </metadata>
  <g
     inkscape:label="Layer 1"
     inkscape:groupmode="layer"
     id="layer1"
     transform="translate(-42.625641,-161.17309)">
    <path
       inkscape:connector-curvature="0"
       id="path1526"
       style="font-style:normal;font-variant:normal;font-weight:bold;font-stretch:condensed;font-size:22.57777786px;line-height:1.25;font-family:'Liberation Sans Narrow';-inkscape-font-specification:'Liberation Sans Narrow Bold Condensed';letter-spacing:0px;word-spacing:0px;fill:#364945;fill-opacity:1;stroke:none;stroke-width:0.26458332"
       d="m 49.405589,164.71189 v 13.01971 h -2.667882 v -13.01971 h -4.112066 v -2.51354 H 53.52868 v 2.51354 z" />
    <path
       inkscape:connector-curvature="0"
       id="path1530"
       style="font-style:normal;font-variant:normal;font-weight:bold;font-stretch:condensed;font-size:22.57777786px;line-height:1.25;font-family:'Liberation Sans Narrow';-inkscape-font-specification:'Liberation Sans Narrow Bold Condensed';letter-spacing:0px;word-spacing:0px;fill:#364945;fill-opacity:1;stroke:none;stroke-width:0.26458332"
       d="m 67.40828,165.8033 v 6.69175 q 0,0.69453 0.08819,1.27882 0.08819,0.57327 0.297657,0.99219 0.209461,0.4079 0.540191,0.63941 0.330729,0.23151 0.804774,0.23151 0.463021,0 0.837847,-0.24253 0.374826,-0.25356 0.63941,-0.70556 0.275607,-0.46302 0.418923,-1.09141 0.154341,-0.63941 0.154341,-1.40008 v -6.3941 h 2.546614 v 9.26042 q 0,0.37482 0,0.79375 0.01102,0.4079 0.02205,0.78272 0.01102,0.3638 0.02205,0.66146 0.01103,0.28663 0.02205,0.42995 H 71.37703 q -0.01102,-0.13229 -0.03307,-0.41893 -0.01102,-0.29765 -0.03307,-0.65043 -0.01102,-0.35278 -0.02205,-0.70556 -0.01102,-0.35277 -0.01102,-0.59531 h -0.0441 q -0.507118,1.35599 -1.289844,1.97335 -0.782726,0.61736 -1.863108,0.61736 -0.881944,0 -1.499305,-0.35277 -0.606337,-0.35278 -0.992188,-0.95912 -0.38585,-0.61736 -0.562239,-1.45521 -0.165365,-0.83784 -0.165365,-1.80798 v -7.5737 z" />
    <path
       inkscape:connector-curvature="0"
       id="path1532"
       style="font-style:normal;font-variant:normal;font-weight:bold;font-stretch:condensed;font-size:22.57777786px;line-height:1.25;font-family:'Liberation Sans Narrow';-inkscape-font-specification:'Liberation Sans Narrow Bold Condensed';letter-spacing:0px;word-spacing:0px;fill:#364945;fill-opacity:1;stroke:none;stroke-width:0.26458332"
       d="m 80.416959,177.95208 q -1.168576,0 -2.039496,-0.44097 -0.87092,-0.44097 -1.455209,-1.24574 -0.573264,-0.80478 -0.859895,-1.92926 -0.286632,-1.1355 -0.286632,-2.50252 0,-1.48828 0.30868,-2.64583 0.319705,-1.16858 0.915017,-1.96233 0.595313,-0.80477 1.466233,-1.22369 0.881945,-0.41893 1.984375,-0.41893 0.94809,0 1.686719,0.30868 0.738628,0.30868 1.267795,0.84888 0.540191,0.52916 0.87092,1.25677 0.330729,0.7276 0.451997,1.56545 l -2.557639,0.15434 q -0.110243,-0.91502 -0.540191,-1.45521 -0.429948,-0.55122 -1.234722,-0.55122 -1.025261,0 -1.488282,1.02526 -0.46302,1.02526 -0.46302,2.97657 0,4.12309 1.995399,4.12309 0.727604,0 1.212673,-0.55122 0.48507,-0.56224 0.606337,-1.66467 l 2.546615,0.14332 q -0.08819,0.82682 -0.418924,1.5875 -0.319705,0.74965 -0.87092,1.33394 -0.540191,0.57326 -1.322917,0.92604 -0.771701,0.34175 -1.774913,0.34175 z" />
    <path
       inkscape:connector-curvature="0"
       id="path1534"
       style="font-style:normal;font-variant:normal;font-weight:bold;font-stretch:condensed;font-size:22.57777786px;line-height:1.25;font-family:'Liberation Sans Narrow';-inkscape-font-specification:'Liberation Sans Narrow Bold Condensed';letter-spacing:0px;word-spacing:0px;fill:#364945;fill-opacity:1;stroke:none;stroke-width:0.26458332"
       d="m 89.159236,168.18455 q 0.518142,-1.36701 1.289844,-1.98438 0.782725,-0.61736 1.863107,-0.61736 0.881945,0 1.488281,0.35278 0.617362,0.35278 1.003212,0.97014 0.385851,0.61736 0.551216,1.45521 0.176388,0.83785 0.176388,1.80798 v 7.56268 h -2.53559 v -6.68073 q 0,-0.69453 -0.08819,-1.2678 -0.08819,-0.58428 -0.297657,-0.99218 -0.209461,-0.41893 -0.551215,-0.65044 -0.330729,-0.23151 -0.804774,-0.23151 -0.463021,0 -0.837847,0.25356 -0.374827,0.24254 -0.650434,0.70556 -0.264584,0.45199 -0.418924,1.0914 -0.143316,0.62839 -0.143316,1.38906 v 6.38308 h -2.546615 v -16.36007 h 2.546615 v 4.46484 q 0,0.35278 -0.01102,0.71658 -0.01102,0.35278 -0.02205,0.67248 -0.01102,0.30869 -0.02205,0.56224 -0.01103,0.25356 -0.02205,0.39688 z" />
    <path
       inkscape:connector-curvature="0"
       id="path1536"
       style="font-style:normal;font-variant:normal;font-weight:bold;font-stretch:condensed;font-size:22.57777786px;line-height:1.25;font-family:'Liberation Sans Narrow';-inkscape-font-specification:'Liberation Sans Narrow Bold Condensed';letter-spacing:0px;word-spacing:0px;fill:#364945;fill-opacity:1;stroke:none;stroke-width:0.26458332"
       d="m 102.00255,177.95208 q -1.05833,0 -1.9072,-0.37482 -0.848876,-0.38585 -1.444188,-1.15755 -0.595313,-0.78273 -0.915018,-1.95131 -0.30868,-1.1796 -0.30868,-2.75607 0,-1.70877 0.374826,-2.87735 0.374827,-1.16857 1.003212,-1.88515 0.63941,-0.72761 1.466228,-1.04731 0.83785,-0.31971 1.76389,-0.31971 1.15756,0 1.97335,0.4961 0.8158,0.48507 1.33395,1.36701 0.52916,0.88195 0.7717,2.11667 0.25356,1.2237 0.25356,2.71198 v 0.0882 h -6.27283 q 0,0.74965 0.0992,1.40009 0.11025,0.63941 0.35278,1.11345 0.24254,0.46302 0.62839,0.73863 0.39687,0.26458 0.94809,0.26458 0.67248,0 1.0914,-0.34175 0.42995,-0.35278 0.60634,-1.08038 l 2.39228,0.25356 q -0.16537,0.50712 -0.46303,1.08038 -0.28663,0.57326 -0.7717,1.05833 -0.48507,0.47405 -1.21267,0.79375 -0.7276,0.30868 -1.76389,0.30868 z m 0,-10.41796 q -0.38585,0 -0.7276,0.16536 -0.34176,0.15434 -0.59532,0.50712 -0.24253,0.34175 -0.39687,0.89297 -0.15434,0.55121 -0.17639,1.32291 h 3.80339 q -0.0772,-1.44418 -0.57327,-2.16076 -0.49609,-0.7276 -1.33394,-0.7276 z m -0.87092,-2.84428 v -0.34175 l 2.28203,-3.175 h 2.32613 v 0.47405 l -3.06476,3.0427 z" />
    <g
       style="fill:#ffffff;fill-opacity:1"
       id="g90"
       transform="matrix(0.15050459,0,0,-0.15050459,58.537495,175.5099)" />
    <g
       id="g914"
       style="fill:#5ba7ff;fill-opacity:1">
      <path
         d="m 62.965485,171.75642 q 0,1.36702 -0.308681,2.50252 -0.30868,1.13551 -0.937066,1.96233 -0.617361,0.8158 -1.554427,1.27882 -0.926041,0.45199 -2.171788,0.45199 -1.190625,0 -2.105642,-0.45199 -0.915018,-0.452 -1.532379,-1.2678 -0.617361,-0.8158 -0.937066,-1.9513 -0.30868,-1.14653 -0.30868,-2.52457 0,-1.33394 0.297656,-2.45842 0.308681,-1.1355 0.915017,-1.96232 0.617362,-0.82683 1.543403,-1.28985 0.937066,-0.46302 2.182813,-0.46302 1.322916,0 2.248958,0.46302 0.937066,0.46302 1.521354,1.28985 0.595313,0.8158 0.87092,1.9513 0.275608,1.12448 0.275608,2.46944 z m -2.656858,0 q 0,-2.12769 -0.573264,-3.0868 -0.562239,-0.95912 -1.642621,-0.95912 -1.124479,0 -1.719792,0.97014 -0.595312,0.97014 -0.595312,3.07578 0,1.06936 0.15434,1.84106 0.15434,0.7717 0.440972,1.2678 0.297656,0.49609 0.705556,0.73863 0.407899,0.23151 0.892969,0.23151 0.562239,0 0.992187,-0.23151 0.440972,-0.24254 0.738629,-0.73863 0.297656,-0.4961 0.451996,-1.2678 0.15434,-0.7717 0.15434,-1.84106 z"
         style="font-style:normal;font-variant:normal;font-weight:bold;font-stretch:condensed;font-size:22.57777786px;line-height:1.25;font-family:'Liberation Sans Narrow';-inkscape-font-specification:'Liberation Sans Narrow Bold Condensed';letter-spacing:0px;word-spacing:0px;fill:#5ba7ff;fill-opacity:1;stroke:none;stroke-width:0.26458332"
         id="path1528"
         inkscape:connector-curvature="0" />
      <g
         transform="matrix(0.11068836,-0.01767651,-0.01767651,-0.11068836,55.503722,178.99312)"
         id="g74"
         style="fill:#5ba7ff;fill-opacity:1">
        <path
           inkscape:connector-curvature="0"
           id="path76"
           style="fill:#5ba7ff;fill-opacity:1;fill-rule:nonzero;stroke:none"
           d="m 0,0 c -4.531,2.018 -8.902,3.892 -13.009,6.727 -4.282,2.955 -8.035,7.358 -11.484,11.219 -9.245,10.349 -7.28,23.671 -3.446,35.712 0.16,0.504 -0.54,0.739 -0.811,0.342 C -36.152,43.182 -35.329,27.242 -31.631,15.275 -27.8,2.877 -15.01,-6.775 -2.187,-8.074 2.011,-8.499 3.878,-1.727 0,0" />
      </g>
      <g
         transform="matrix(0.11209091,0,0,-0.11209091,58.151091,179.79202)"
         id="g78"
         style="fill:#5ba7ff;fill-opacity:1">
        <path
           inkscape:connector-curvature="0"
           id="path80"
           style="fill:#5ba7ff;fill-opacity:1;fill-rule:nonzero;stroke:none"
           d="m 0,0 c 7.429,-7.741 21.51,-8.467 31.43,-7.525 5.407,0.514 10.843,0.622 16.263,0.908 4.874,0.258 10.051,-0.079 14.84,0.937 0.514,0.109 0.454,0.837 0,0.978 -3.805,1.187 -8.04,1.29 -11.979,1.775 -4.996,0.616 -9.977,1.381 -14.974,1.952 C 30.139,-0.354 24.653,1.079 19.239,2.001 13.835,2.922 8.933,5.125 3.64,6.253 0.022,7.024 -2.68,2.792 0,0" />
      </g>
      <g
         transform="matrix(0.11209091,0,0,-0.11209091,57.488372,183.41865)"
         id="g82"
         style="fill:#5ba7ff;fill-opacity:1">
        <path
           inkscape:connector-curvature="0"
           id="path84"
           style="fill:#5ba7ff;fill-opacity:1;fill-rule:nonzero;stroke:none"
           d="m 0,0 c 3.711,-4.706 8.787,-8.492 13.084,-12.674 2.914,-2.836 11.228,-9.159 9.116,-13.954 -0.987,-2.241 -3.34,-3.899 -5.094,-5.497 -2.503,-2.281 -5.015,-4.574 -7.604,-6.758 -5.183,-4.371 -10.773,-8.359 -15.687,-13.037 -0.447,-0.426 0.122,-1.106 0.64,-0.83 7.032,3.741 13.413,8.616 20.345,12.545 3.348,1.896 6.663,3.856 10.061,5.661 2.83,1.503 5.824,3.49 6.898,6.691 2.572,7.669 -2.98,13.733 -7.937,18.877 C 18.41,-3.36 12.282,3.277 5.214,6.758 0.638,9.012 -2.995,3.798 0,0" />
      </g>
      <g
         transform="matrix(0.11209091,0,0,-0.11209091,55.111608,182.2484)"
         id="g86"
         style="fill:#5ba7ff;fill-opacity:1">
        <path
           inkscape:connector-curvature="0"
           id="path88"
           style="fill:#5ba7ff;fill-opacity:1;fill-rule:nonzero;stroke:none"
           d="m 0,0 c -0.788,-8.515 0.274,-16.911 -1.144,-25.454 -1.492,-8.985 -4.643,-17.174 -8.664,-25.294 -7.206,-14.551 -17.806,-26.695 -30.856,-36.223 -0.253,-0.185 -0.113,-0.654 0.228,-0.541 16.428,5.411 30.615,16.816 39.738,31.438 5.163,8.275 8.194,18.235 9.906,27.766 1.632,9.081 2.609,20.693 -0.946,29.426 C 6.465,5.531 0.452,4.885 0,0" />
      </g>
      <g
         transform="matrix(0.11209091,0,0,-0.11209091,65.486802,180.53149)"
         id="g94"
         style="fill:#5ba7ff;fill-opacity:1">
        <path
           sodipodi:nodetypes="ccccccc"
           inkscape:connector-curvature="0"
           id="path96"
           style="fill:#5ba7ff;fill-opacity:1;fill-rule:nonzero;stroke:none"
           d="m 0,0 c 28.616,-1.215 374.49274,-0.222 403.13474,-0.255 28.67,-0.034 57.468,-0.451 86.12,0.663 0.422,0.016 0.422,0.638 0,0.655 -28.65,1.171 -57.449,0.812 -86.12,0.836 C 374.49374,1.924 28.618,2.975 0,1.818 -1.172,1.77 -1.171,0.05 0,0" />
      </g>
      <g
         transform="matrix(0.11209091,0,0,-0.11209091,65.14535,179.29186)"
         id="g98"
         style="fill:#5ba7ff;fill-opacity:1">
        <path
           inkscape:connector-curvature="0"
           id="path100"
           style="fill:#5ba7ff;fill-opacity:1;fill-rule:nonzero;stroke:none"
           d="M 0,0 10.56,-10.237 0,-20.474 Z" />
      </g>
      <path
         sodipodi:nodetypes="ccccccccccccccccccccccccc"
         inkscape:connector-curvature="0"
         id="one-finger-click-6"
         d="m 123.5379,180.63584 h -1.52744 v -0.38188 h 1.52744 z m -0.984,-2.44488 -0.96127,1.18705 -0.29676,-0.24031 0.96127,-1.18706 z m -2.57205,-0.7656 0.34359,1.4883 -0.37207,0.0859 -0.3436,-1.48828 z m -0.37208,5.95318 0.3436,-1.4883 0.37207,0.0859 -0.34359,1.48829 z m 2.64737,-0.43938 -0.96127,-1.18705 0.29676,-0.24032 0.96127,1.18705 z"
         style="fill:#5ba7ff;fill-opacity:1;fill-rule:evenodd;stroke:none;stroke-width:0.38186139" />
    </g>
    <g
       id="g5235"
       transform="translate(-13.72247,23.683634)"
       style="fill:#e6d72a;fill-opacity:1">
      <rect
         y="145.59439"
         x="122.25199"
         height="8.6740646"
         width="8.6740646"
         id="rect1543"
         style="fill:#e6d72a;fill-opacity:1;stroke:none;stroke-width:0.18632628" />
    </g>
    <text
       xml:space="preserve"
       style="font-style:normal;font-weight:normal;font-size:6.33891106px;line-height:1.25;font-family:sans-serif;letter-spacing:0px;word-spacing:0px;fill:#000000;fill-opacity:1;stroke:none;stroke-width:0.15847278;"
       x="110.54826"
       y="175.36383"
       id="text1541"><tspan
         sodipodi:role="line"
         id="tspan1539"
         x="110.54826"
         y="175.36383"
         style="fill:#000000;fill-opacity:1;stroke-width:0.15847278;">js</tspan></text>
  </g>
</svg>
