<?xml version="1.0" encoding="UTF-8" standalone="no"?>
<!-- Created with Inkscape (http://www.inkscape.org/) -->

<svg
   xmlns:dc="http://purl.org/dc/elements/1.1/"
   xmlns:cc="http://creativecommons.org/ns#"
   xmlns:rdf="http://www.w3.org/1999/02/22-rdf-syntax-ns#"
   xmlns:svg="http://www.w3.org/2000/svg"
   xmlns="http://www.w3.org/2000/svg"
   xmlns:sodipodi="http://sodipodi.sourceforge.net/DTD/sodipodi-0.dtd"
   xmlns:inkscape="http://www.inkscape.org/namespaces/inkscape"
   width="80.912262mm"
   height="30.886555mm"
   viewBox="0 0 80.912262 30.886555"
   version="1.1"
   id="svg8"
   inkscape:version="0.92.2 (5c3e80d, 2017-08-06)"
   sodipodi:docname="touche-lower-body.svg">
  <defs
     id="defs2" />
  <sodipodi:namedview
     id="base"
     pagecolor="#000000"
     bordercolor="#666666"
     borderopacity="1.0"
     inkscape:pageopacity="0"
     inkscape:pageshadow="2"
     inkscape:zoom="3.0502806"
     inkscape:cx="179.98636"
     inkscape:cy="32.696672"
     inkscape:document-units="mm"
     inkscape:current-layer="layer1"
     showgrid="false"
     inkscape:window-width="1920"
     inkscape:window-height="1053"
     inkscape:window-x="0"
     inkscape:window-y="27"
     inkscape:window-maximized="1" />
  <metadata
     id="metadata5">
    <rdf:RDF>
      <cc:Work
         rdf:about="">
        <dc:format>image/svg+xml</dc:format>
        <dc:type
           rdf:resource="http://purl.org/dc/dcmitype/StillImage" />
        <dc:title></dc:title>
      </cc:Work>
    </rdf:RDF>
  </metadata>
  <g
     inkscape:label="Layer 1"
     inkscape:groupmode="layer"
     id="layer1"
     transform="translate(-42.625641,-161.17309)">
    <text
       xml:space="preserve"
       style="font-style:normal;font-weight:normal;font-size:10.58333302px;line-height:1.25;font-family:sans-serif;letter-spacing:0px;word-spacing:0px;fill:#000000;fill-opacity:1;stroke:none;stroke-width:0.26458332"
       x="35.737148"
       y="145.03038"
       id="text817"><tspan
         sodipodi:role="line"
         id="tspan815"
         x="35.737148"
         y="145.03038"
         style="stroke-width:0.26458332">Tou</tspan></text>
    <g
       style="fill:#00bfff;fill-opacity:1"
       id="g82"
       transform="matrix(0.11209091,0,0,-0.11209091,57.488372,183.41865)">
      <path
         d="m 0,0 c 3.711,-4.706 8.787,-8.492 13.084,-12.674 2.914,-2.836 11.228,-9.159 9.116,-13.954 -0.987,-2.241 -3.34,-3.899 -5.094,-5.497 -2.503,-2.281 -5.015,-4.574 -7.604,-6.758 -5.183,-4.371 -10.773,-8.359 -15.687,-13.037 -0.447,-0.426 0.122,-1.106 0.64,-0.83 7.032,3.741 13.413,8.616 20.345,12.545 3.348,1.896 6.663,3.856 10.061,5.661 2.83,1.503 5.824,3.49 6.898,6.691 2.572,7.669 -2.98,13.733 -7.937,18.877 C 18.41,-3.36 12.282,3.277 5.214,6.758 0.638,9.012 -2.995,3.798 0,0"
         style="fill:#00bfff;fill-opacity:1;fill-rule:nonzero;stroke:none"
         id="path84"
         inkscape:connector-curvature="0" />
    </g>
    <g
       style="fill:#00bfff;fill-opacity:1"
       id="g86"
       transform="matrix(0.11209091,0,0,-0.11209091,55.111608,182.2484)">
      <path
         d="m 0,0 c -0.788,-8.515 0.274,-16.911 -1.144,-25.454 -1.492,-8.985 -4.643,-17.174 -8.664,-25.294 -7.206,-14.551 -17.806,-26.695 -30.856,-36.223 -0.253,-0.185 -0.113,-0.654 0.228,-0.541 16.428,5.411 30.615,16.816 39.738,31.438 5.163,8.275 8.194,18.235 9.906,27.766 1.632,9.081 2.609,20.693 -0.946,29.426 C 6.465,5.531 0.452,4.885 0,0"
         style="fill:#00bfff;fill-opacity:1;fill-rule:nonzero;stroke:none"
         id="path88"
         inkscape:connector-curvature="0" />
    </g>
    <g
       style="fill:#ffffff;fill-opacity:1"
       id="g90"
       transform="matrix(0.15050459,0,0,-0.15050459,58.537495,175.5099)" />
  </g>
</svg>
