<?xml version="1.0" encoding="UTF-8" standalone="no"?>
<svg
   xmlns:dc="http://purl.org/dc/elements/1.1/"
   xmlns:cc="http://creativecommons.org/ns#"
   xmlns:rdf="http://www.w3.org/1999/02/22-rdf-syntax-ns#"
   xmlns:svg="http://www.w3.org/2000/svg"
   xmlns="http://www.w3.org/2000/svg"
   xmlns:sodipodi="http://sodipodi.sourceforge.net/DTD/sodipodi-0.dtd"
   xmlns:inkscape="http://www.inkscape.org/namespaces/inkscape"
   enable-background="new 0 0 128 128"
   id="Слой_1"
   version="1.1"
   viewBox="0 0 128 128"
   xml:space="preserve"
   sodipodi:docname="virtualpointer3.svg"
   inkscape:version="0.92.2 (5c3e80d, 2017-08-06)"><metadata
     id="metadata863"><rdf:RDF><cc:Work
         rdf:about=""><dc:format>image/svg+xml</dc:format><dc:type
           rdf:resource="http://purl.org/dc/dcmitype/StillImage" /><dc:title></dc:title></cc:Work></rdf:RDF></metadata><defs
     id="defs861"><inkscape:path-effect
       effect="fill_between_many"
       id="path-effect4603"
       is_visible="true"
       linkedpaths="" /><inkscape:path-effect
       effect="fill_between_many"
       id="path-effect911"
       is_visible="true"
       linkedpaths="" /></defs><sodipodi:namedview
     pagecolor="#ff6778"
     bordercolor="#666666"
     borderopacity="1"
     objecttolerance="10"
     gridtolerance="10"
     guidetolerance="10"
     inkscape:pageopacity="0"
     inkscape:pageshadow="2"
     inkscape:window-width="1920"
     inkscape:window-height="1053"
     id="namedview859"
     showgrid="false"
     inkscape:zoom="6.6875"
     inkscape:cx="65.241521"
     inkscape:cy="70.185217"
     inkscape:window-x="0"
     inkscape:window-y="27"
     inkscape:window-maximized="1"
     inkscape:current-layer="Слой_1" /><g
     id="layer1-7-9"
     transform="matrix(0.12266356,0,0,0.12266356,22.6564,25.312714)"
     style="fill:#ffff00;fill-opacity:1"
     inkscape:export-xdpi="109.91"
     inkscape:export-ydpi="109.91"><path
       style="opacity:1;fill:#ffff00;fill-opacity:1;stroke:none;stroke-width:0.24532712;stroke-miterlimit:4;stroke-dasharray:none;stroke-opacity:1"
       d="m 57.28125,-4.3300781 a 15.700936,15.700936 0 0 0 -16.160156,15.6953121 15.701172,15.701172 0 0 0 31.402344,0 A 15.700936,15.700936 0 0 0 57.28125,-4.3300781 Z M 57.166016,-0.40625 a 11.775702,11.775702 0 0 1 11.43164,11.771484 11.775702,11.775702 0 0 1 -23.550781,0 11.775702,11.775702 0 0 1 12.119141,-11.771484 z"
       transform="matrix(8.1523804,0,0,8.1523804,-335.23806,35.352387)"
       id="path2380-9-3"
       inkscape:connector-curvature="0" /></g><g
     id="layer1-7"
     transform="matrix(0.12266356,0,0,0.12266356,22.655797,25.312585)"
     inkscape:export-xdpi="109.91"
     inkscape:export-ydpi="109.91"><path
       style="opacity:1;fill:#000000;fill-opacity:1;stroke:none;stroke-width:0.24532712;stroke-miterlimit:4;stroke-dasharray:none;stroke-opacity:1"
       d="M 99.599609,6.5859375 A 15.700936,15.700936 0 0 0 83.439453,22.28125 a 15.701173,15.701173 0 0 0 31.402347,0 A 15.700936,15.700936 0 0 0 99.599609,6.5859375 Z m -0.05859,1.9628906 a 13.738319,13.738319 0 0 1 13.337891,13.7324219 13.738319,13.738319 0 1 1 -27.476563,0 13.738319,13.738319 0 0 1 14.138672,-13.7324219 z"
       transform="matrix(8.1523804,0,0,8.1523804,-680.22851,-53.638084)"
       id="path2380-9"
       inkscape:connector-curvature="0" /></g><path
     style="fill:#ffffff;fill-opacity:1"
     d="m 109.772,89.236998 -9.433,-11.464 c -0.352,-0.426 -0.98,-0.488 -1.408,-0.137 l -0.29,0.238 c -0.593,-0.847 -1.5,-2.401 -2.018,-4.568 -1.134,-4.744 -3,-9.266 -5.704,-13.824 -1.25,-2.104 -6.069,-7.382 -8.659,-10.217 -0.534,-0.585 -0.95,-1.041 -1.185,-1.306 -1.229,-1.386 -2.85,-2.119 -4.686,-2.119 -0.784,0 -1.582,0.134 -2.373,0.398 -5.371,1.792 -11.602,3.972 -13.179,4.581 -2.242,0.866 -3.103,2.531 -3.43,3.776001 -0.107,0.406999 -0.171,0.834 -0.195,1.268 L 45.368,41.998998 c -1.003,-1.218 -2.31,-1.889 -3.681,-1.889 -1.039,0 -2.062,0.39 -2.957,1.127 -1.064,0.876 -1.621,2.015 -1.608,3.292 0.011,1.141 0.479,2.305 1.34,3.350001 l 17.639,22.405999 c 1.442,1.751001 1.923,2.430001 2.581,3.373001 l -8.666,-5.415001 c -0.045,-0.028 -0.092,-0.053 -0.141,-0.073 -2.789,-1.178 -5.143,-0.31 -6.216,2.229 -0.028,0.066 -0.049,0.135999 -0.062,0.206 -0.022,0.124 -0.522,3.069999 3.352,6.013 l 8.499,6.404 c 6.035,5.326 12.633,8.33 20.171,9.184 1.61,0.182 2.818,1.081 3.501,1.732 l -0.181,0.149 c -0.426,0.352 -0.487,0.981 -0.137,1.408 L 88.235,106.96 c 0.169,0.204 0.412,0.334 0.676,0.359 0.032,0.003 0.064,0.005 0.097,0.005 0.23,0 0.456,-0.08 0.636,-0.228 l 19.994,-16.451003 c 0.204,-0.168999 0.334,-0.412 0.359,-0.676 0.025,-0.263999 -0.057,-0.527 -0.225,-0.731999 z"
     id="path5493"
     inkscape:export-xdpi="109.91"
     inkscape:export-ydpi="109.91" /><text
     xml:space="preserve"
     style="font-style:normal;font-weight:normal;font-size:40px;line-height:1.25;font-family:sans-serif;letter-spacing:0px;word-spacing:0px;fill:#000000;fill-opacity:1;stroke:none"
     x="70.429909"
     y="74.467293"
     id="text879"
     inkscape:export-xdpi="94.942848"
     inkscape:export-ydpi="94.942848"><tspan
       sodipodi:role="line"
       id="tspan877"
       x="70.429909"
       y="109.85792" /></text>
<path
     style="fill:#000000;fill-opacity:1"
     inkscape:connector-curvature="0"
     id="path850"
     d="m 109.772,89.237 -9.433,-11.464 c -0.352,-0.426 -0.98,-0.488 -1.408,-0.137 l -0.29,0.238 c -0.593,-0.847 -1.5,-2.401 -2.018,-4.568 -1.134,-4.744 -3,-9.266 -5.704,-13.824 C 89.669,57.378 84.85,52.1 82.26,49.265 81.726,48.68 81.31,48.224 81.075,47.959 79.846,46.573 78.225,45.84 76.389,45.84 c -0.784,0 -1.582,0.134 -2.373,0.398 -5.371,1.792 -11.602,3.972 -13.179,4.581 -2.242,0.866 -3.103,2.531 -3.43,3.776 -0.107,0.407 -0.171,0.834 -0.195,1.268 L 45.368,41.999 c -1.003,-1.218 -2.31,-1.889 -3.681,-1.889 -1.039,0 -2.062,0.39 -2.957,1.127 -1.064,0.876 -1.621,2.015 -1.608,3.292 0.011,1.141 0.479,2.305 1.34,3.35 l 17.639,22.406 c 1.442,1.751 1.923,2.43 2.581,3.373 l -8.666,-5.415 c -0.045,-0.028 -0.092,-0.053 -0.141,-0.073 -2.789,-1.178 -5.143,-0.31 -6.216,2.229 -0.028,0.066 -0.049,0.136 -0.062,0.206 -0.022,0.124 -0.522,3.07 3.352,6.013 l 8.499,6.404 c 6.035,5.326 12.633,8.33 20.171,9.184 1.61,0.182 2.818,1.081 3.501,1.732 l -0.181,0.149 c -0.426,0.352 -0.487,0.981 -0.137,1.408 l 9.433,11.465 c 0.169,0.204 0.412,0.334 0.676,0.359 0.032,0.003 0.064,0.005 0.097,0.005 0.23,0 0.456,-0.08 0.636,-0.228 l 19.994,-16.451 c 0.204,-0.169 0.334,-0.412 0.359,-0.676 0.025,-0.264 -0.057,-0.527 -0.225,-0.732 z M 75.843,90.218 C 68.726,89.413 62.488,86.57 56.711,81.474 l -8.557,-6.45 c -2.518,-1.913 -2.61,-3.595 -2.597,-3.973 0.58,-1.263 1.387,-1.412 1.95,-1.412 0.449,0 0.959,0.115 1.518,0.344 l 8.827,5.515 c 0.958,0.535 2.213,0.139 2.711,-0.816 0.341,-0.651 0.289,-1.406 -0.166,-2.058 -0.699,-1.004 -1.205,-1.729 -2.738,-3.592 L 40.02,46.625 c -0.572,-0.695 -0.892,-1.446 -0.897,-2.114 -0.007,-0.662 0.289,-1.244 0.879,-1.729 1.255,-1.032 2.707115,-0.815962 3.834,0.503 l 14.849,17.38 c 0.357,0.416 0.981,0.468 1.403,0.117 0.42,-0.353 0.479,-0.979 0.13,-1.402 -0.752,-0.913 -1.293,-2.675 -0.873,-4.273 0.303,-1.155 1.049,-1.969 2.216,-2.42 1.558,-0.602 7.744,-2.766 13.091,-4.55 1.893,-0.63 3.695,-0.239 4.93,1.152 0.238,0.268 0.661,0.731 1.204,1.326 2.36,2.584 7.271,7.961 8.415,9.889 2.601,4.383 4.393,8.724 5.479,13.269 0.609,2.551 1.708,4.389 2.415,5.378 L 80.674,92.658 c -0.869,-0.875 -2.521,-2.179 -4.831,-2.44 z m 13.3,14.699 -8.162,-9.921 0.212,-0.175 0.006,-0.003 17.924,-14.747 c 10e-4,-0.001 10e-4,-0.002 0.002,-0.003 l 0.306,-0.252 8.162,9.92 z"
     sodipodi:nodetypes="ccccccccscccccscccccccccccccccccsccscccccsccccccccscccccccccccccccccccccc"
     inkscape:export-xdpi="109.91"
     inkscape:export-ydpi="109.91" /><g
     id="layer2-2"
     transform="matrix(0.12266356,0,0,0.12266356,83.439251,6.5794383)" /><g
     id="layer3-2-4"
     transform="matrix(0.12266356,0,0,0.12266356,41.121494,-4.3364497)" /><circle
     style="fill:#000000;fill-opacity:1;stroke:#000000;stroke-width:1.70000005;stroke-miterlimit:4;stroke-dasharray:none;stroke-opacity:1"
     id="path2101"
     cx="38.357174"
     cy="41.013969"
     r="1.046729" /></svg>