<?xml version="1.0" encoding="UTF-8" standalone="no"?>
<!-- Created with Inkscape (http://www.inkscape.org/) -->

<svg
   xmlns:dc="http://purl.org/dc/elements/1.1/"
   xmlns:cc="http://creativecommons.org/ns#"
   xmlns:rdf="http://www.w3.org/1999/02/22-rdf-syntax-ns#"
   xmlns:svg="http://www.w3.org/2000/svg"
   xmlns="http://www.w3.org/2000/svg"
   xmlns:sodipodi="http://sodipodi.sourceforge.net/DTD/sodipodi-0.dtd"
   xmlns:inkscape="http://www.inkscape.org/namespaces/inkscape"
   width="80.912262mm"
   height="30.886555mm"
   viewBox="0 0 80.912262 30.886555"
   version="1.1"
   id="svg8"
   inkscape:version="0.92.2 (5c3e80d, 2017-08-06)"
   sodipodi:docname="touche-upper-body.svg">
  <defs
     id="defs2" />
  <sodipodi:namedview
     id="base"
     pagecolor="#000000"
     bordercolor="#666666"
     borderopacity="1.0"
     inkscape:pageopacity="0"
     inkscape:pageshadow="2"
     inkscape:zoom="3.0502806"
     inkscape:cx="179.98636"
     inkscape:cy="32.696672"
     inkscape:document-units="mm"
     inkscape:current-layer="layer1"
     showgrid="false"
     inkscape:window-width="1920"
     inkscape:window-height="1053"
     inkscape:window-x="0"
     inkscape:window-y="27"
     inkscape:window-maximized="1" />
  <metadata
     id="metadata5">
    <rdf:RDF>
      <cc:Work
         rdf:about="">
        <dc:format>image/svg+xml</dc:format>
        <dc:type
           rdf:resource="http://purl.org/dc/dcmitype/StillImage" />
        <dc:title></dc:title>
      </cc:Work>
    </rdf:RDF>
  </metadata>
  <g
     inkscape:label="Layer 1"
     inkscape:groupmode="layer"
     id="layer1"
     transform="translate(-42.625641,-161.17309)">
    <text
       xml:space="preserve"
       style="font-style:normal;font-weight:normal;font-size:10.58333302px;line-height:1.25;font-family:sans-serif;letter-spacing:0px;word-spacing:0px;fill:#000000;fill-opacity:1;stroke:none;stroke-width:0.26458332"
       x="35.737148"
       y="145.03038"
       id="text817"><tspan
         sodipodi:role="line"
         id="tspan815"
         x="35.737148"
         y="145.03038"
         style="stroke-width:0.26458332">Tou</tspan></text>
    <path
       inkscape:connector-curvature="0"
       id="path1528"
       style="font-style:normal;font-variant:normal;font-weight:bold;font-stretch:condensed;font-size:22.57777786px;line-height:1.25;font-family:'Liberation Sans Narrow';-inkscape-font-specification:'Liberation Sans Narrow Bold Condensed';letter-spacing:0px;word-spacing:0px;fill:#00bfff;fill-opacity:1;stroke:none;stroke-width:0.26458332"
       d="m 62.965485,171.75642 q 0,1.36702 -0.308681,2.50252 -0.30868,1.13551 -0.937066,1.96233 -0.617361,0.8158 -1.554427,1.27882 -0.926041,0.45199 -2.171788,0.45199 -1.190625,0 -2.105642,-0.45199 -0.915018,-0.452 -1.532379,-1.2678 -0.617361,-0.8158 -0.937066,-1.9513 -0.30868,-1.14653 -0.30868,-2.52457 0,-1.33394 0.297656,-2.45842 0.308681,-1.1355 0.915017,-1.96232 0.617362,-0.82683 1.543403,-1.28985 0.937066,-0.46302 2.182813,-0.46302 1.322916,0 2.248958,0.46302 0.937066,0.46302 1.521354,1.28985 0.595313,0.8158 0.87092,1.9513 0.275608,1.12448 0.275608,2.46944 z m -2.656858,0 q 0,-2.12769 -0.573264,-3.0868 -0.562239,-0.95912 -1.642621,-0.95912 -1.124479,0 -1.719792,0.97014 -0.595312,0.97014 -0.595312,3.07578 0,1.06936 0.15434,1.84106 0.15434,0.7717 0.440972,1.2678 0.297656,0.49609 0.705556,0.73863 0.407899,0.23151 0.892969,0.23151 0.562239,0 0.992187,-0.23151 0.440972,-0.24254 0.738629,-0.73863 0.297656,-0.4961 0.451996,-1.2678 0.15434,-0.7717 0.15434,-1.84106 z" />
    <g
       style="fill:#00bfff;fill-opacity:1"
       id="g74"
       transform="matrix(0.11068836,-0.01767651,-0.01767651,-0.11068836,55.503722,178.99312)">
      <path
         d="m 0,0 c -4.531,2.018 -8.902,3.892 -13.009,6.727 -4.282,2.955 -8.035,7.358 -11.484,11.219 -9.245,10.349 -7.28,23.671 -3.446,35.712 0.16,0.504 -0.54,0.739 -0.811,0.342 C -36.152,43.182 -35.329,27.242 -31.631,15.275 -27.8,2.877 -15.01,-6.775 -2.187,-8.074 2.011,-8.499 3.878,-1.727 0,0"
         style="fill:#00bfff;fill-opacity:1;fill-rule:nonzero;stroke:none"
         id="path76"
         inkscape:connector-curvature="0" />
    </g>
    <g
       style="fill:#00bfff;fill-opacity:1"
       id="g78"
       transform="matrix(0.11209091,0,0,-0.11209091,58.151091,179.79202)">
      <path
         d="m 0,0 c 7.429,-7.741 21.51,-8.467 31.43,-7.525 5.407,0.514 10.843,0.622 16.263,0.908 4.874,0.258 10.051,-0.079 14.84,0.937 0.514,0.109 0.454,0.837 0,0.978 -3.805,1.187 -8.04,1.29 -11.979,1.775 -4.996,0.616 -9.977,1.381 -14.974,1.952 C 30.139,-0.354 24.653,1.079 19.239,2.001 13.835,2.922 8.933,5.125 3.64,6.253 0.022,7.024 -2.68,2.792 0,0"
         style="fill:#00bfff;fill-opacity:1;fill-rule:nonzero;stroke:none"
         id="path80"
         inkscape:connector-curvature="0" />
    </g>
    <g
       style="fill:#ffffff;fill-opacity:1"
       id="g90"
       transform="matrix(0.15050459,0,0,-0.15050459,58.537495,175.5099)" />
    <g
       style="fill:#00bfff;fill-opacity:1"
       id="g94"
       transform="matrix(0.11209091,0,0,-0.11209091,65.486802,180.53149)">
      <path
         d="m 0,0 c 28.616,-1.215 374.49274,-0.222 403.13474,-0.255 28.67,-0.034 57.468,-0.451 86.12,0.663 0.422,0.016 0.422,0.638 0,0.655 -28.65,1.171 -57.449,0.812 -86.12,0.836 C 374.49374,1.924 28.618,2.975 0,1.818 -1.172,1.77 -1.171,0.05 0,0"
         style="fill:#00bfff;fill-opacity:1;fill-rule:nonzero;stroke:none"
         id="path96"
         inkscape:connector-curvature="0"
         sodipodi:nodetypes="ccccccc" />
    </g>
    <g
       style="fill:#00bfff;fill-opacity:1"
       id="g98"
       transform="matrix(0.11209091,0,0,-0.11209091,65.14535,179.29186)">
      <path
         d="M 0,0 10.56,-10.237 0,-20.474 Z"
         style="fill:#00bfff;fill-opacity:1;fill-rule:nonzero;stroke:none"
         id="path100"
         inkscape:connector-curvature="0" />
    </g>
    <path
       style="fill:#00bfff;fill-opacity:1;fill-rule:evenodd;stroke:none;stroke-width:0.38186139"
       d="m 123.5379,180.63584 h -1.52744 v -0.38188 h 1.52744 z m -0.984,-2.44488 -0.96127,1.18705 -0.29676,-0.24031 0.96127,-1.18706 z m -2.57205,-0.7656 0.34359,1.4883 -0.37207,0.0859 -0.3436,-1.48828 z m -0.37208,5.95318 0.3436,-1.4883 0.37207,0.0859 -0.34359,1.48829 z m 2.64737,-0.43938 -0.96127,-1.18705 0.29676,-0.24032 0.96127,1.18705 z"
       id="one-finger-click-6"
       inkscape:connector-curvature="0"
       sodipodi:nodetypes="ccccccccccccccccccccccccc" />
  </g>
</svg>
