<?xml version="1.0" encoding="UTF-8" standalone="no"?>
<!-- Created with Inkscape (http://www.inkscape.org/) -->

<svg
   xmlns:dc="http://purl.org/dc/elements/1.1/"
   xmlns:cc="http://creativecommons.org/ns#"
   xmlns:rdf="http://www.w3.org/1999/02/22-rdf-syntax-ns#"
   xmlns:svg="http://www.w3.org/2000/svg"
   xmlns="http://www.w3.org/2000/svg"
   xmlns:sodipodi="http://sodipodi.sourceforge.net/DTD/sodipodi-0.dtd"
   xmlns:inkscape="http://www.inkscape.org/namespaces/inkscape"
   width="125.24086mm"
   height="69.162651mm"
   viewBox="0 0 125.24086 69.162651"
   version="1.1"
   id="svg356"
   inkscape:version="0.92.2 (5c3e80d, 2017-08-06)"
   sodipodi:docname="touche.svg">
  <defs
     id="defs350" />
  <sodipodi:namedview
     id="base"
     pagecolor="#ffffff"
     bordercolor="#666666"
     borderopacity="1.0"
     inkscape:pageopacity="0.0"
     inkscape:pageshadow="2"
     inkscape:zoom="0.98994949"
     inkscape:cx="-126.98812"
     inkscape:cy="50.291153"
     inkscape:document-units="mm"
     inkscape:current-layer="layer1"
     showgrid="false"
     inkscape:window-width="1920"
     inkscape:window-height="1053"
     inkscape:window-x="0"
     inkscape:window-y="27"
     inkscape:window-maximized="1" />
  <metadata
     id="metadata353">
    <rdf:RDF>
      <cc:Work
         rdf:about="">
        <dc:format>image/svg+xml</dc:format>
        <dc:type
           rdf:resource="http://purl.org/dc/dcmitype/StillImage" />
        <dc:title />
      </cc:Work>
    </rdf:RDF>
  </metadata>
  <g
     inkscape:label="Layer 1"
     inkscape:groupmode="layer"
     id="layer1"
     transform="translate(154.28137,39.962277)">
    <path
       style="fill:#ffffff;fill-opacity:1;fill-rule:evenodd;stroke:none;stroke-width:0.26458332"
       d="m -143.44895,-69.67834 v 1.058333 h 0.26459 v -1.058333 z m 1.694,0.681795 -0.82248,0.666031 0.16651,0.20562 0.82248,-0.666031 z m 0.53047,1.782117 -1.03121,-0.238073 -0.0595,0.257802 1.0312,0.238073 z m -4.12483,0.257802 1.03121,-0.238073 -0.0595,-0.257802 -1.03121,0.238073 z m 0.30444,-1.834299 0.82248,0.666031 0.16651,-0.20562 -0.82248,-0.666031 z"
       id="one-finger-click-3"
       inkscape:connector-curvature="0"
       sodipodi:nodetypes="ccccccccccccccccccccccccc" />
    <g
       transform="matrix(-0.35277777,0,0,-0.35277777,2.5518799,247.03544)"
       id="g325"
       style="fill:#ffffff;fill-opacity:1">
      <g
         transform="translate(149.8823,759.3367)"
         id="g74"
         style="fill:#ffffff;fill-opacity:1">
        <path
           inkscape:connector-curvature="0"
           id="path76"
           style="fill:#ffffff;fill-opacity:1;fill-rule:nonzero;stroke:none"
           d="m 0,0 c -4.531,2.018 -8.902,3.892 -13.009,6.727 -4.282,2.955 -8.035,7.358 -11.484,11.219 -9.245,10.349 -7.28,23.671 -3.446,35.712 0.16,0.504 -0.54,0.739 -0.811,0.342 C -36.152,43.182 -35.329,27.242 -31.631,15.275 -27.8,2.877 -15.01,-6.775 -2.187,-8.074 2.011,-8.499 3.878,-1.727 0,0" />
      </g>
      <g
         transform="translate(184.0562,733.4492)"
         id="g78"
         style="fill:#ffffff;fill-opacity:1">
        <path
           inkscape:connector-curvature="0"
           id="path80"
           style="fill:#ffffff;fill-opacity:1;fill-rule:nonzero;stroke:none"
           d="m 0,0 c 7.429,-7.741 21.51,-8.467 31.43,-7.525 5.407,0.514 10.843,0.622 16.263,0.908 4.874,0.258 10.051,-0.079 14.84,0.937 0.514,0.109 0.454,0.837 0,0.978 -3.805,1.187 -8.04,1.29 -11.979,1.775 -4.996,0.616 -9.977,1.381 -14.974,1.952 C 30.139,-0.354 24.653,1.079 19.239,2.001 13.835,2.922 8.933,5.125 3.64,6.253 0.022,7.024 -2.68,2.792 0,0" />
      </g>
      <g
         transform="translate(151.5506,694.5744)"
         id="g82"
         style="fill:#ffffff;fill-opacity:1">
        <path
           inkscape:connector-curvature="0"
           id="path84"
           style="fill:#ffffff;fill-opacity:1;fill-rule:nonzero;stroke:none"
           d="m 0,0 c 3.711,-4.706 8.787,-8.492 13.084,-12.674 2.914,-2.836 11.228,-9.159 9.116,-13.954 -0.987,-2.241 -3.34,-3.899 -5.094,-5.497 -2.503,-2.281 -5.015,-4.574 -7.604,-6.758 -5.183,-4.371 -10.773,-8.359 -15.687,-13.037 -0.447,-0.426 0.122,-1.106 0.64,-0.83 7.032,3.741 13.413,8.616 20.345,12.545 3.348,1.896 6.663,3.856 10.061,5.661 2.83,1.503 5.824,3.49 6.898,6.691 2.572,7.669 -2.98,13.733 -7.937,18.877 C 18.41,-3.36 12.282,3.277 5.214,6.758 0.638,9.012 -2.995,3.798 0,0" />
      </g>
      <g
         transform="translate(130.3467,705.0146)"
         id="g86"
         style="fill:#ffffff;fill-opacity:1">
        <path
           inkscape:connector-curvature="0"
           id="path88"
           style="fill:#ffffff;fill-opacity:1;fill-rule:nonzero;stroke:none"
           d="m 0,0 c -0.788,-8.515 0.274,-16.911 -1.144,-25.454 -1.492,-8.985 -4.643,-17.174 -8.664,-25.294 -7.206,-14.551 -17.806,-26.695 -30.856,-36.223 -0.253,-0.185 -0.113,-0.654 0.228,-0.541 16.428,5.411 30.615,16.816 39.738,31.438 5.163,8.275 8.194,18.235 9.906,27.766 1.632,9.081 2.609,20.693 -0.946,29.426 C 6.465,5.531 0.452,4.885 0,0" />
      </g>
      <g
         transform="translate(194.7134,768.1998)"
         id="g90"
         style="fill:#ffffff;fill-opacity:1">
        <path
           inkscape:connector-curvature="0"
           id="path92"
           style="fill:#ffffff;fill-opacity:1;fill-rule:nonzero;stroke:none"
           d="m 0,0 c 0,-8.922 -7.232,-16.154 -16.154,-16.154 -8.922,0 -16.154,7.232 -16.154,16.154 0,8.922 7.232,16.154 16.154,16.154 C -7.232,16.154 0,8.922 0,0" />
      </g>
      <g
         transform="translate(249.5005,726.8522)"
         id="g94"
         style="fill:#ffffff;fill-opacity:1">
        <path
           inkscape:connector-curvature="0"
           id="path96"
           style="fill:#ffffff;fill-opacity:1;fill-rule:nonzero;stroke:none"
           d="m 0,0 c 28.616,-1.215 57.478,-0.222 86.12,-0.255 28.67,-0.034 57.468,-0.451 86.12,0.663 0.422,0.016 0.422,0.638 0,0.655 C 143.59,2.234 114.791,1.875 86.12,1.899 57.479,1.924 28.618,2.975 0,1.818 -1.172,1.77 -1.171,0.05 0,0" />
      </g>
      <g
         transform="translate(246.4543,737.9113)"
         id="g98"
         style="fill:#ffffff;fill-opacity:1">
        <path
           inkscape:connector-curvature="0"
           id="path100"
           style="fill:#ffffff;fill-opacity:1;fill-rule:nonzero;stroke:none"
           d="M 0,0 10.56,-10.237 0,-20.474 Z" />
      </g>
    </g>
    <path
       style="fill:#ffffff;fill-opacity:1;fill-rule:evenodd;stroke:none;stroke-width:1.144907"
       d="m -154.28137,-9.0593101 h 4.57961 v -1.1449409 h -4.57961 z m 2.95025,-7.3302919 2.88209,3.559042 0.88976,-0.720524 -2.8821,-3.559042 z m 7.7116,-2.295454 -1.03018,4.46226 1.11556,0.257469 1.03018,-4.462217 z m 1.11556,17.84899675 -1.03018,-4.46225985 -1.11556,0.257471 1.03018,4.46226018 z m -7.93741,-1.31737485 2.8821,-3.559042 -0.88976,-0.720522 -2.88209,3.55904 z"
       id="one-finger-click-6"
       inkscape:connector-curvature="0"
       sodipodi:nodetypes="ccccccccccccccccccccccccc" />
  </g>
</svg>
