<?xml version="1.0" encoding="UTF-8" standalone="no"?>
<svg
   xmlns:dc="http://purl.org/dc/elements/1.1/"
   xmlns:cc="http://creativecommons.org/ns#"
   xmlns:rdf="http://www.w3.org/1999/02/22-rdf-syntax-ns#"
   xmlns:svg="http://www.w3.org/2000/svg"
   xmlns="http://www.w3.org/2000/svg"
   xmlns:sodipodi="http://sodipodi.sourceforge.net/DTD/sodipodi-0.dtd"
   xmlns:inkscape="http://www.inkscape.org/namespaces/inkscape"
   enable-background="new 0 0 128 128"
   id="Слой_1"
   version="1.1"
   viewBox="0 0 128 128"
   xml:space="preserve"
   sodipodi:docname="virtualpointer.svg"
   inkscape:version="0.92.2 (5c3e80d, 2017-08-06)"><metadata
     id="metadata863"><rdf:RDF><cc:Work
         rdf:about=""><dc:format>image/svg+xml</dc:format><dc:type
           rdf:resource="http://purl.org/dc/dcmitype/StillImage" /><dc:title></dc:title></cc:Work></rdf:RDF></metadata><defs
     id="defs861"><inkscape:path-effect
       effect="fill_between_many"
       id="path-effect4603"
       is_visible="true"
       linkedpaths="" /><inkscape:path-effect
       effect="fill_between_many"
       id="path-effect911"
       is_visible="true"
       linkedpaths="" /></defs><sodipodi:namedview
     pagecolor="#ffffff"
     bordercolor="#666666"
     borderopacity="1"
     objecttolerance="10"
     gridtolerance="10"
     guidetolerance="10"
     inkscape:pageopacity="0"
     inkscape:pageshadow="2"
     inkscape:window-width="1920"
     inkscape:window-height="1053"
     id="namedview859"
     showgrid="false"
     inkscape:zoom="6.6875"
     inkscape:cx="60.083855"
     inkscape:cy="64.798992"
     inkscape:window-x="0"
     inkscape:window-y="27"
     inkscape:window-maximized="1"
     inkscape:current-layer="Слой_1" /><path
     style="fill:#313638"
     inkscape:connector-curvature="0"
     id="path852"
     d="m 32.376,33.762 c 4.012,-3.301 9.963,-2.723 13.265,1.29 0.966,1.174 1.591,2.516 1.903,3.907 l 2.298,2.793 c 0.175,-2.81 -0.658,-5.69 -2.584,-8.031 -4.035,-4.904 -11.308,-5.612 -16.213,-1.576 -4.905,4.035 -5.612,11.308 -1.576,16.213 2.033,2.471 4.888,3.873 7.848,4.144 l -2.151,-2.611 c -1.543,-0.555 -2.964,-1.508 -4.08,-2.864 -3.302,-4.013 -2.723,-9.964 1.29,-13.265 z" /><path
     style="fill:#dd4cdd;fill-opacity:1"
     d="m 109.772,89.237 -9.433,-11.464 c -0.352002,-0.426 -0.980002,-0.488 -1.408002,-0.137 l -0.29,0.238 c -0.593,-0.847 -1.5,-2.401 -2.018,-4.568 -1.134,-4.744 -3,-9.266 -5.704,-13.824 -1.25,-2.104 -6.069,-7.382 -8.659,-10.217 -0.534,-0.585 -0.95,-1.041 -1.185,-1.306 -1.229,-1.386 -2.85,-2.119 -4.686,-2.119 -0.784,0 -1.582,0.134 -2.373,0.398 -5.371,1.792 -11.602,3.972 -13.179,4.581 -2.242,0.866 -3.103,2.531 -3.43,3.776 -0.107,0.407 -0.171,0.834 -0.195,1.268 L 45.367999,41.999 c -1.003,-1.218 -2.31,-1.889 -3.681,-1.889 -1.039,0 -2.062,0.39 -2.957,1.127 -1.064,0.876 -1.621,2.015 -1.608,3.292 0.011,1.141 0.479,2.305 1.34,3.35 l 17.638999,22.406 c 1.442,1.751 1.923,2.43 2.581,3.373 l -8.666,-5.415 c -0.045,-0.028 -0.092,-0.053 -0.141,-0.073 -2.788999,-1.178 -5.142999,-0.31 -6.215999,2.229 -0.028,0.066 -0.049,0.136 -0.062,0.206 -0.022,0.124 -0.522,3.07 3.352,6.013 l 8.498999,6.404 c 6.035,5.326 12.633,8.33 20.171,9.184 1.61,0.182 2.818,1.081 3.501,1.732 l -0.181,0.149 c -0.426,0.352 -0.487,0.981 -0.137,1.408 l 9.433,11.465 c 0.169,0.204 0.412,0.334 0.676,0.359 0.032,0.003 0.064,0.005 0.097,0.005 0.23,0 0.456,-0.08 0.636,-0.228 L 109.638,90.645 c 0.204,-0.169 0.334,-0.412 0.359,-0.676 0.025,-0.264 -0.057,-0.527 -0.225,-0.732 z"
     id="path4663" /><path
     style="fill:#800000"
     inkscape:connector-curvature="0"
     id="path854"
     d="m 25.022,52.017 c -6.053,-7.356 -4.992,-18.266 2.364,-24.319 7.356,-6.053 18.266,-4.992 24.319,2.364 4.113,4.999 4.933,11.635 2.733,17.277 l 0.816,0.992 c 0.11,-0.101 0.223,-0.2 0.34,-0.296 0.184,-0.151 0.376,-0.295 0.577,-0.431 0.16,-0.108 0.327,-0.198 0.492,-0.293 2.095,-6.148 1.08,-13.205 -3.341,-18.579 -6.787,-8.249 -19.018,-9.438 -27.267,-2.651 -8.249,6.787 -9.438,19.018 -2.651,27.267 4.952,6.018 12.799,8.259 19.886,6.405 L 41.813,57.96 C 35.75,59.184 29.219,57.117 25.022,52.017 Z" /><text
     xml:space="preserve"
     style="font-style:normal;font-weight:normal;font-size:40px;line-height:1.25;font-family:sans-serif;letter-spacing:0px;word-spacing:0px;fill:#000000;fill-opacity:1;stroke:none"
     x="70.429909"
     y="74.467293"
     id="text879"><tspan
       sodipodi:role="line"
       id="tspan877"
       x="70.429909"
       y="109.85792"></tspan></text>
<path
     style="fill:#ffffff;fill-opacity:1"
     d="m 75.842998,90.218 c -7.117,-0.805 -13.355,-3.648 -19.132,-8.744 l -8.557,-6.45 c -2.517999,-1.913 -2.609999,-3.595 -2.596999,-3.973 0.58,-1.263 1.387,-1.412 1.949999,-1.412 0.449,0 0.959,0.115 1.518,0.344 l 8.827,5.515 c 0.958,0.535 2.213,0.139 2.711,-0.816 0.341,-0.651 0.289,-1.406 -0.166,-2.058 -0.699,-1.004 -1.205,-1.729 -2.738,-3.592 L 40.019999,46.625 c -0.572,-0.695 -0.892,-1.446 -0.897,-2.114 -0.007,-0.662 0.289,-1.244 0.879,-1.729 1.255,-1.032 2.707115,-0.815962 3.834,0.503 l 14.848999,17.38 c 0.357,0.416 0.981,0.468 1.403,0.117 0.42,-0.353 0.479,-0.979 0.13,-1.402 -0.752,-0.913 -1.293,-2.675 -0.873,-4.273 0.303,-1.155 1.049,-1.969 2.216,-2.42 1.558,-0.602 7.744,-2.766 13.091,-4.55 1.893,-0.63 3.695,-0.239 4.93,1.152 0.238,0.268 0.661,0.731 1.204,1.326 2.36,2.584 7.271,7.961 8.415,9.889 2.601,4.383 4.393,8.724 5.479,13.269 0.609,2.551 1.708,4.389 2.415,5.378 l -16.421,13.507 c -0.869,-0.875 -2.521,-2.179 -4.831,-2.44 z"
     id="path4661" /><circle
     style="fill:#800000;fill-opacity:1;stroke:#ffffff;stroke-opacity:0.93630575"
     id="path884"
     cx="38.354847"
     cy="41.031292"
     r="1.7943925" /><path
     style="fill:#ffffff;fill-opacity:1"
     d="m 89.142998,104.917 -8.162,-9.921 0.212,-0.175 0.006,-0.003 17.924,-14.747 c 0.001,-0.001 0.001,-0.002 0.002,-0.003 l 0.306,-0.252 8.162002,9.92 z"
     id="path850-6" /><path
     style="fill:#dddddd;fill-opacity:1"
     inkscape:connector-curvature="0"
     id="path850"
     d="m 109.772,89.237 -9.433,-11.464 c -0.352,-0.426 -0.98,-0.488 -1.408,-0.137 l -0.29,0.238 c -0.593,-0.847 -1.5,-2.401 -2.018,-4.568 -1.134,-4.744 -3,-9.266 -5.704,-13.824 C 89.669,57.378 84.85,52.1 82.26,49.265 81.726,48.68 81.31,48.224 81.075,47.959 79.846,46.573 78.225,45.84 76.389,45.84 c -0.784,0 -1.582,0.134 -2.373,0.398 -5.371,1.792 -11.602,3.972 -13.179,4.581 -2.242,0.866 -3.103,2.531 -3.43,3.776 -0.107,0.407 -0.171,0.834 -0.195,1.268 L 45.368,41.999 c -1.003,-1.218 -2.31,-1.889 -3.681,-1.889 -1.039,0 -2.062,0.39 -2.957,1.127 -1.064,0.876 -1.621,2.015 -1.608,3.292 0.011,1.141 0.479,2.305 1.34,3.35 l 17.639,22.406 c 1.442,1.751 1.923,2.43 2.581,3.373 l -8.666,-5.415 c -0.045,-0.028 -0.092,-0.053 -0.141,-0.073 -2.789,-1.178 -5.143,-0.31 -6.216,2.229 -0.028,0.066 -0.049,0.136 -0.062,0.206 -0.022,0.124 -0.522,3.07 3.352,6.013 l 8.499,6.404 c 6.035,5.326 12.633,8.33 20.171,9.184 1.61,0.182 2.818,1.081 3.501,1.732 l -0.181,0.149 c -0.426,0.352 -0.487,0.981 -0.137,1.408 l 9.433,11.465 c 0.169,0.204 0.412,0.334 0.676,0.359 0.032,0.003 0.064,0.005 0.097,0.005 0.23,0 0.456,-0.08 0.636,-0.228 l 19.994,-16.451 c 0.204,-0.169 0.334,-0.412 0.359,-0.676 0.025,-0.264 -0.057,-0.527 -0.225,-0.732 z M 75.843,90.218 C 68.726,89.413 62.488,86.57 56.711,81.474 l -8.557,-6.45 c -2.518,-1.913 -2.61,-3.595 -2.597,-3.973 0.58,-1.263 1.387,-1.412 1.95,-1.412 0.449,0 0.959,0.115 1.518,0.344 l 8.827,5.515 c 0.958,0.535 2.213,0.139 2.711,-0.816 0.341,-0.651 0.289,-1.406 -0.166,-2.058 -0.699,-1.004 -1.205,-1.729 -2.738,-3.592 L 40.02,46.625 c -0.572,-0.695 -0.892,-1.446 -0.897,-2.114 -0.007,-0.662 0.289,-1.244 0.879,-1.729 1.255,-1.032 2.707115,-0.815962 3.834,0.503 l 14.849,17.38 c 0.357,0.416 0.981,0.468 1.403,0.117 0.42,-0.353 0.479,-0.979 0.13,-1.402 -0.752,-0.913 -1.293,-2.675 -0.873,-4.273 0.303,-1.155 1.049,-1.969 2.216,-2.42 1.558,-0.602 7.744,-2.766 13.091,-4.55 1.893,-0.63 3.695,-0.239 4.93,1.152 0.238,0.268 0.661,0.731 1.204,1.326 2.36,2.584 7.271,7.961 8.415,9.889 2.601,4.383 4.393,8.724 5.479,13.269 0.609,2.551 1.708,4.389 2.415,5.378 L 80.674,92.658 c -0.869,-0.875 -2.521,-2.179 -4.831,-2.44 z m 13.3,14.699 -8.162,-9.921 0.212,-0.175 0.006,-0.003 17.924,-14.747 c 10e-4,-0.001 10e-4,-0.002 0.002,-0.003 l 0.306,-0.252 8.162,9.92 z"
     sodipodi:nodetypes="ccccccccscccccscccccccccccccccccsccscccccsccccccccscccccccccccccccccccccc" /></svg>